Coordinates
version=1
nRows=30
nColumns=38
inDegrees=no

Units are S.I. units (second, meters, Newtons, ...)
If the header above contains a line with 'inDegrees', this indicates whether rotational values are in degrees (yes) or radians (no).

endheader
time	pelvis_tilt	pelvis_list	pelvis_rotation	pelvis_tx	pelvis_ty	pelvis_tz	hip_flexion_r	hip_adduction_r	hip_rotation_r	knee_angle_r	ankle_angle_r	subtalar_angle_r	mtp_angle_r	hip_flexion_l	hip_adduction_l	hip_rotation_l	knee_angle_l	ankle_angle_l	subtalar_angle_l	mtp_angle_l	lumbar_extension	lumbar_bending	lumbar_rotation	arm_flex_r	arm_add_r	arm_rot_r	elbow_flex_r	pro_sup_r	wrist_flex_r	wrist_dev_r	arm_flex_l	arm_add_l	arm_rot_l	elbow_flex_l	pro_sup_l	wrist_flex_l	wrist_dev_l
0.63	0.0130744	1.39425	-1.49614	0.9033	1.18398	0.944405	0.379357	-0.112281	-0.0870245	1.22557	0.091447	0	0	-0.141659	0.0458519	-0.120878	0.166844	0.141806	0	0	-0.303017	-0.0761003	-0.179462	-0.0606779	-0.209353	0.103953	0.430943	0.973345	0	0	-0.114768	-0.459827	0.292112	0.696737	1.24161	0	0
0.64	-0.011159	1.39455	-1.4679	0.904061	1.1747	0.945122	0.391841	-0.107943	-0.0887293	1.18852	0.101192	0	0	-0.161689	0.0415381	-0.112982	0.14811	0.141693	0	0	-0.304462	-0.0706258	-0.18173	-0.0615555	-0.208265	0.093387	0.430671	0.986121	0	0	-0.103874	-0.463414	0.303091	0.699581	1.23954	0	0
0.65	-0.0284169	1.39562	-1.44639	0.904832	1.16538	0.945533	0.402653	-0.105692	-0.0916125	1.14733	0.106887	0	0	-0.181678	0.0386181	-0.104244	0.127652	0.140689	0	0	-0.304948	-0.0666743	-0.184687	-0.0631107	-0.206898	0.082557	0.431624	0.999732	0	0	-0.0936572	-0.466873	0.312109	0.703029	1.2407	0	0
0.66	-0.0396869	1.39768	-1.43045	0.905605	1.15602	0.945629	0.412554	-0.105661	-0.0961611	1.10273	0.105515	0	0	-0.200827	0.0367326	-0.0950897	0.106785	0.139281	0	0	-0.304471	-0.0640789	-0.188648	-0.0651469	-0.205252	0.0723283	0.433824	1.01207	0	0	-0.0841652	-0.469856	0.317909	0.706353	1.2461	0	0
0.67	-0.0464603	1.40062	-1.41835	0.9064	1.14668	0.945422	0.421144	-0.107405	-0.102817	1.0545	0.0982455	0	0	-0.218719	0.0354944	-0.0850449	0.0865329	0.137869	0	0	-0.303337	-0.062339	-0.194078	-0.0669349	-0.203317	0.063614	0.436425	1.02294	0	0	-0.0755397	-0.472487	0.320755	0.709878	1.25367	0	0
0.68	-0.0511881	1.40404	-1.40785	0.907194	1.13732	0.944931	0.428101	-0.110355	-0.111949	1.00304	0.0891268	0	0	-0.235483	0.0343597	-0.0740138	0.0677964	0.137269	0	0	-0.301802	-0.0610204	-0.200433	-0.0685713	-0.200908	0.0549019	0.439117	1.03393	0	0	-0.0677165	-0.474872	0.321197	0.714472	1.26394	0	0
0.69	-0.0546292	1.40756	-1.39892	0.907926	1.12792	0.944198	0.433092	-0.113688	-0.122996	0.949629	0.082625	0	0	-0.251241	0.0331511	-0.06409	0.0511771	0.137993	0	0	-0.30011	-0.0600232	-0.206936	-0.06969	-0.19823	0.0472882	0.441336	1.04334	0	0	-0.0604692	-0.476905	0.319892	0.718963	1.27659	0	0
0.7	-0.0540978	1.41103	-1.39392	0.908594	1.11853	0.943249	0.436017	-0.117898	-0.136435	0.894993	0.0804037	0	0	-0.265952	0.0322039	-0.0548087	0.0368429	0.139828	0	0	-0.298459	-0.0598012	-0.213677	-0.0703361	-0.195239	0.0408922	0.442979	1.05078	0	0	-0.0533752	-0.478847	0.317496	0.723227	1.29065	0	0
0.71	-0.0512214	1.4159	-1.39116	0.908985	1.10916	0.941971	0.432822	-0.120008	-0.137195	0.815877	0.0637747	0	0	-0.276469	0.031017	-0.0492399	0.0279346	0.145055	0	0	-0.295638	-0.0606769	-0.220767	-0.0708101	-0.191876	0.0381027	0.444498	1.05314	0	0	-0.046674	-0.481794	0.316094	0.72822	1.29719	0	0
0.72	-0.0383067	1.41886	-1.39723	0.909611	1.0996	0.940666	0.437177	-0.129322	-0.171962	0.781954	0.0800333	0	0	-0.290801	0.0310182	-0.0380014	0.0161414	0.147943	0	0	-0.295109	-0.0621518	-0.229116	-0.0718616	-0.188449	0.0319684	0.447075	1.06162	0	0	-0.0405606	-0.483592	0.310473	0.732974	1.31763	0	0
0.73	-0.0256861	1.42279	-1.40423	0.909855	1.09003	0.93909	0.43593	-0.134925	-0.192949	0.724343	0.0795767	0	0	-0.301152	0.0306356	-0.0316429	0.0106155	0.154841	0	0	-0.293653	-0.0643858	-0.236212	-0.0729092	-0.184906	0.0277434	0.449786	1.06705	0	0	-0.0346598	-0.486281	0.307344	0.738602	1.32698	0	0
0.74	-0.00971155	1.42658	-1.41543	0.9099	1.08036	0.937343	0.434055	-0.139822	-0.214753	0.667165	0.0792474	0	0	-0.310914	0.0305136	-0.0257234	0.00699149	0.162509	0	0	-0.292522	-0.0672887	-0.242115	-0.07427	-0.181215	0.0222067	0.452738	1.07456	0	0	-0.0285714	-0.489096	0.305258	0.7442	1.33378	0	0
0.75	0.0111458	1.43053	-1.43256	0.909733	1.07076	0.935418	0.432382	-0.143776	-0.23563	0.610645	0.0807644	0	0	-0.319066	0.0309683	-0.0223565	0.00635463	0.172052	0	0	-0.291508	-0.0710156	-0.246285	-0.0760559	-0.177453	0.0164593	0.456449	1.08016	0	0	-0.0213449	-0.492064	0.305754	0.749351	1.33621	0	0
0.76	0.0354653	1.435	-1.45524	0.909278	1.06109	0.933293	0.431411	-0.145968	-0.253632	0.555209	0.0857644	0	0	-0.32619	0.0321357	-0.0216599	0.00694666	0.182183	0	0	-0.290113	-0.0755194	-0.24793	-0.0781163	-0.173847	0.0115047	0.460256	1.08391	0	0	-0.0137337	-0.494701	0.307309	0.7547	1.33728	0	0
0.77	0.0586477	1.43893	-1.47812	0.90865	1.05137	0.931124	0.429476	-0.146024	-0.269703	0.500068	0.0922812	0	0	-0.333364	0.0330629	-0.023003	0.00869645	0.193146	0	0	-0.289442	-0.0796502	-0.247853	-0.0798281	-0.170516	0.00645437	0.463792	1.08782	0	0	-0.00576334	-0.496868	0.309446	0.759596	1.33781	0	0
0.78	0.0814992	1.44279	-1.50187	0.907859	1.04159	0.928909	0.427313	-0.144052	-0.281059	0.4459	0.099374	0	0	-0.339975	0.0338938	-0.0265377	0.0118738	0.20455	0	0	-0.288735	-0.0836483	-0.246487	-0.0807211	-0.167526	0.00191548	0.466201	1.09291	0	0	0.00237534	-0.498493	0.312113	0.763188	1.3375	0	0
0.79	0.104371	1.44684	-1.52734	0.906884	1.03173	0.926618	0.424972	-0.139814	-0.285238	0.392499	0.107158	0	0	-0.345913	0.0349403	-0.0324555	0.0162094	0.216175	0	0	-0.287652	-0.0876319	-0.243256	-0.0809848	-0.165224	-0.00317586	0.468492	1.09784	0	0	0.0107123	-0.499277	0.315108	0.76554	1.33617	0	0
0.8	0.127732	1.45138	-1.5548	0.90574	1.02175	0.924228	0.422484	-0.133525	-0.281312	0.339509	0.114768	0	0	-0.350999	0.0362812	-0.0402132	0.0214167	0.227901	0	0	-0.285749	-0.0915778	-0.238397	-0.080646	-0.163598	-0.00708795	0.469735	1.1029	0	0	0.0190206	-0.499182	0.318382	0.766666	1.33388	0	0
0.81	0.15172	1.45624	-1.58319	0.904591	1.01163	0.92177	0.419178	-0.126105	-0.269943	0.287191	0.121013	0	0	-0.355326	0.03759	-0.0485618	0.0275718	0.239733	0	0	-0.283115	-0.0950871	-0.233209	-0.0796966	-0.16274	-0.0089697	0.469631	1.10851	0	0	0.0271269	-0.498099	0.321554	0.76642	1.33063	0	0
0.82	0.174417	1.46098	-1.60967	0.903546	1.00138	0.919313	0.413791	-0.11831	-0.253478	0.235502	0.12349	0	0	-0.35926	0.0383362	-0.0568712	0.0349778	0.251702	0	0	-0.280239	-0.0977423	-0.228666	-0.0782488	-0.162601	-0.00951254	0.468671	1.11435	0	0	0.0347467	-0.496594	0.324986	0.765232	1.3267	0	0
0.83	0.19729	1.46568	-1.63649	0.902519	0.990832	0.916822	0.408064	-0.111001	-0.234505	0.188634	0.122275	0	0	-0.363342	0.0388486	-0.0660131	0.0429839	0.263606	0	0	-0.276708	-0.0999255	-0.224089	-0.0769259	-0.162944	-0.0112373	0.468043	1.11893	0	0	0.0411563	-0.494723	0.328478	0.763688	1.3226	0	0
0.84	0.219348	1.46983	-1.66206	0.901537	0.979955	0.914361	0.402045	-0.104762	-0.217538	0.149318	0.11941	0	0	-0.368301	0.0389123	-0.0746296	0.0511733	0.274931	0	0	-0.272883	-0.101544	-0.219884	-0.0759532	-0.163275	-0.0135339	0.467339	1.12276	0	0	0.0461519	-0.492144	0.331062	0.762138	1.31846	0	0
0.85	0.240527	1.47312	-1.68564	0.900668	0.968785	0.91198	0.395941	-0.0999809	-0.206137	0.119631	0.116676	0	0	-0.374218	0.0383746	-0.0818158	0.0597435	0.285339	0	0	-0.269278	-0.102446	-0.217175	-0.074884	-0.163538	-0.0156247	0.466216	1.12639	0	0	0.0496792	-0.488962	0.332412	0.760259	1.31413	0	0
0.86	0.263549	1.47606	-1.70993	0.89992	0.957354	0.909644	0.390809	-0.096859	-0.201466	0.10066	0.114741	0	0	-0.380098	0.0373361	-0.0882202	0.0694905	0.295119	0	0	-0.265727	-0.102836	-0.215806	-0.0739987	-0.16389	-0.0175783	0.464997	1.13021	0	0	0.0519031	-0.485747	0.33332	0.758578	1.31004	0	0
0.87	0.281722	1.47825	-1.72793	0.899287	0.945617	0.907454	0.386444	-0.094783	-0.202916	0.0938872	0.11475	0	0	-0.38624	0.0349585	-0.0947217	0.0808522	0.30439	0	0	-0.26271	-0.102128	-0.215964	-0.0733362	-0.164149	-0.0188578	0.46374	1.13391	0	0	0.0527417	-0.48264	0.334149	0.757117	1.30644	0	0
0.88	0.288358	1.47955	-1.73251	0.898837	0.933614	0.90548	0.382425	-0.0932286	-0.209712	0.0993196	0.116058	0	0	-0.392478	0.0305158	-0.101213	0.0945584	0.313425	0	0	-0.260587	-0.0996746	-0.217868	-0.0728688	-0.164513	-0.018603	0.462518	1.13764	0	0	0.0526005	-0.479053	0.334552	0.755418	1.30351	0	0
0.89	0.28088	1.48009	-1.72162	0.898539	0.921336	0.90374	0.378252	-0.0916692	-0.219651	0.114736	0.116008	0	0	-0.398902	0.0240688	-0.107581	0.110295	0.321759	0	0	-0.259114	-0.0953686	-0.22138	-0.072002	-0.165294	-0.01791	0.460987	1.14102	0	0	0.0509661	-0.47493	0.334035	0.753642	1.30118	0	0
0.9	0.264177	1.47988	-1.69996	0.898414	0.908792	0.902233	0.372385	-0.0903332	-0.231762	0.133685	0.114291	0	0	-0.405412	0.0159812	-0.113399	0.127795	0.328847	0	0	-0.258245	-0.0896323	-0.226741	-0.0707445	-0.166568	-0.0168143	0.459038	1.14365	0	0	0.0479071	-0.470484	0.332811	0.75182	1.29936	0	0
0.91	0.241447	1.47916	-1.67123	0.898319	0.895966	0.900941	0.365052	-0.0887837	-0.244407	0.152472	0.112553	0	0	-0.411558	0.00647288	-0.119232	0.147239	0.334268	0	0	-0.257612	-0.0829771	-0.233298	-0.0694764	-0.168134	-0.0134135	0.456614	1.14587	0	0	0.0433867	-0.465993	0.33081	0.750228	1.29825	0	0
0.92	0.210799	1.47834	-1.63385	0.898123	0.882952	0.899892	0.356827	-0.0860561	-0.256282	0.166877	0.105439	0	0	-0.416079	-0.0048813	-0.125783	0.1699	0.338216	0	0	-0.256872	-0.0754718	-0.240528	-0.0682487	-0.169831	-0.00822244	0.453754	1.14775	0	0	0.0379226	-0.461656	0.328435	0.748594	1.2981	0	0
